<svg width="41" height="37" viewBox="0 0 41 37" fill="none" xmlns="http://www.w3.org/2000/svg">
<path d="M20.8423 15.0577C20.6837 15.2372 20.4068 15.2372 20.2479 15.0577C19.318 14.0059 16.3166 11.1507 12.8498 13.4931C8.66264 16.3222 8.88883 25.122 20.5451 32.1946C20.5451 32.1946 15.3299 36.0144 9.28507 35.4477C5.66373 35.1081 5.83353 31.9962 5.83353 31.9962V19.0298C5.83353 17.8784 4.89981 16.9447 3.74839 16.9447H3.50632C1.72275 16.9447 1.0037 14.6449 2.46982 13.629L19.4971 1.82782C20.1276 1.39073 20.9629 1.39073 21.5931 1.82782L38.6207 13.629C40.0868 14.6449 39.3678 16.9447 37.5839 16.9447H37.3421C36.1903 16.9447 35.257 17.8784 35.257 19.0298V31.9962C35.257 31.9962 35.4268 35.1081 31.8055 35.4477C25.7606 36.0144 20.5451 32.1946 20.5451 32.1946C32.2014 25.122 32.4279 16.3222 28.2404 13.4931C24.774 11.1507 21.7725 14.0059 20.8423 15.0577Z" stroke="white" stroke-width="2"/>
</svg>
