<svg width="40" height="55" viewBox="0 0 40 55" fill="none" xmlns="http://www.w3.org/2000/svg">
<g clip-path="url(#clip0)">
<path d="M24.8326 54.1116C28.6473 37.9301 16.6231 36.9584 22.2818 21.7505C22.2818 21.7505 31.6538 22.6346 36.6036 17.1532C41.5555 11.6717 38.7261 0 38.7261 0C38.7261 0 16.0915 4.4202 22.2818 21.7505" fill="#A6CB42"/>
<path d="M24.8326 54.1116C28.6473 37.9301 16.6231 36.9584 22.2818 21.7505C22.2818 21.7505 31.6538 22.6346 36.6036 17.1532C41.5555 11.6717 38.7261 0 38.7261 0C38.7261 0 16.0915 4.4202 22.2818 21.7505" stroke="white" stroke-width="2" stroke-linecap="round" stroke-linejoin="round"/>
<path d="M0 23.5184C0 23.5184 1.41556 33.4221 7.95828 36.781C14.5009 40.1419 22.5294 36.781 22.5294 36.781C22.5294 36.781 21.5733 28.4702 13.4398 24.5797C5.30618 20.6891 0 23.5184 0 23.5184Z" fill="#A6CB42" stroke="white" stroke-width="2" stroke-linecap="round" stroke-linejoin="round"/>
</g>
<defs>
<clipPath id="clip0">
<rect width="39.5308" height="54.1116" fill="white"/>
</clipPath>
</defs>
</svg>
